/* XPM */
static const char *icon_report[] =
{
/* width height ncolors chars_per_pixel */
"16 16 11 1",
/* colors */
"A c none",
"B c #444444444444",
"C c #555555555555",
"D c #888888888888",
"E c #999966660000",
"F c #BBBBBBBBBBBB",
"G c #CCCCCCCCCCCC",
"H c #DDDDDDDDDDDD",
"I c #EEEEEEEEEEEE",
"J c #FFFFFFFF9999",
"K c #000000000000",
/* pixels */
"AAAAAAAAAAAAAAAA",
"AAAAAAAAAAAAAAAA",
"AAAAAAAAAAAAAAAA",
"AABAAAAAAAAAABAA",
"ABIBBBBAABBBBIBA",
"KKIAAIHBBAAIAAKK",
"KEICDCHGIADBDAEK",
"KEIAAIBGIDAIAAEK",
"KEICDCHGIADBDAEK",
"KEIAAIBGIDAIAAEK",
"KEJAAIHGIAAIAJEK",
"KEEEEEFCFFEEEEEK",
"KKKKKKDKKDKKKKKK",
"AAAAAAAAAAAAAAAA",
"AAAAAAAAAAAAAAAA",
"AAAAAAAAAAAAAAAA",
};
