/* XPM */
static const char *icon_setting[] =
{
/* width height ncolors chars_per_pixel */
"16 16 3 1",
/* colors */
"A c #FFFFFFFFFFFF",
"B c #DEDEDEDEDEDE",
"C c #000000000000",
/* pixels */
"AAAAAAAAAAAAAAAA",
"AAAAAAAAAAAAAAAA",
"AAACCCCCCAAAAAAA",
"AAACAAAACCAAAAAA",
"AAACAAAACBCAAAAA",
"AAACAAAACBBCAAAA",
"AAACAAAACCCCCAAA",
"AAACAAAAAAAACAAA",
"AAACAAAAAAAACAAA",
"AAACAAAAAAAACAAA",
"AAACAAAAAAAACAAA",
"AAACAAAAAAAACAAA",
"AAACAAAAAAAACAAA",
"AAACAAAAAAAACAAA",
"AAACCCCCCCCCCAAA",
"AAAAAAAAAAAAAAAA",
};
