/* XPM */
static const char *icon_new[] =
{
/* width height ncolors chars_per_pixel */
"16 16 9 1",
/* colors */
"A c #FFFFFFFFFFFF",
"B c #FFFFBDBD0000",
"C c #DEDEDEDEDEDE",
"D c #CECECECECECE",
"E c #9C9C9C9C9C9C",
"F c #636363636363",
"G c none",
"H c #00007B7B0000",
"I c #000000000000",
/* pixels */
"GGGGGGGGGGGGGGGG",
"GGGHHHGGGGGGGGGG",
"GGGHBHEEIIIGGGGG",
"GHHHBHHHDAIIGGGG",
"GHBBBBBHDAICIGGG",
"GHHHBHHHDAICCIGG",
"GGGHBHDDDAIIIIIG",
"GGGHHHDAAAAAAAIG",
"GGGDDFDAAAAAAAIG",
"GGGGGIAAAAAAAAIG",
"GGGGGIAAAAAAAAIG",
"GGGGGIAAAAAAAAIG",
"GGGGGIAAAAAAAAIG",
"GGGGGIAAAAAAAAIG",
"GGGGGIIIIIIIIIIG",
"GGGGGGGGGGGGGGGG",
};
