/* XPM */
static const char *icon_newfolder[] =
{
/* width height ncolors chars_per_pixel */
"16 16 12 1",
/* colors */
"A c #FFFFCECE6363",
"B c #FFFFBDBD0000",
"C c #D6D6BDBD6B6B",
"D c #CECE9C9C0000",
"E c #9C9C9C9C9C9C",
"F c #9C9C63630000",
"G c #636363636363",
"H c #424242424242",
"I c none",
"J c #212121212121",
"K c #00007B7B0000",
"L c #000000000000",
/* pixels */
"IIKKKIIIIIIIIIII",
"IIKBKGGIILLIIIII",
"KKKBKKKGLAALLIII",
"KBBBBBKCDAAAALII",
"KKKBKKKEHDDAALII",
"ILKBKCCCDHHDDLII",
"ILKKKCDDDDDLDLII",
"ILCCCCDDDDFLFLII",
"ILDDDDDDDDFLFLII",
"ILDDDDDDDDFLFLII",
"ILFFDDDDDDFLFLII",
"IILLFFDDDDFLFLII",
"IIIILLFFDDFLFLJI",
"IIIIIILLFFFLFLJJ",
"IIIIIIIILLFLFLJJ",
"IIIIIIIIIILLLJJI",
};
