/* XPM */
static const char *icon_folder[] =
{
/* width height ncolors chars_per_pixel */
"16 16 7 1",
/* colors */
"A c none",
"B c #222222222222",
"C c #444444444444",
"D c #999966660000",
"E c #CCCC99990000",
"F c #FFFFCCCC6666",
"G c #000000000000",
/* pixels */
"AAAGGAAAAAAAAAAA",
"AGCEEGGAAGGAAAAA",
"AGECCEEGGFFGGAAA",
"AGEEECCEEFFFFGAA",
"AGEEEEECCEEFFGAA",
"AGEEEEEEECCEEGAA",
"AGEEEEEEEEEGEGAA",
"AGEEEEEEEEDGDGAA",
"AGEEEEEEEEDGDGAA",
"AGEEEEEEEEDGDGAA",
"AGDDEEEEEEDGDGAA",
"AAGGDDEEEEDGDGAA",
"AAAAGGDDEEDGDGBA",
"AAAAAAGGDDDGDGBB",
"AAAAAAAAGGDGDGBB",
"AAAAAAAAAAGGGBBA",
};
